<svg width="721" height="721" viewBox="0 0 721 721" fill="none" xmlns="http://www.w3.org/2000/svg">
<circle cx="360.5" cy="360.5" r="360.5" fill="#1D3557"/>
<path d="M256.55 241.758C287.328 241.758 312.496 251.14 332.055 269.905C351.614 288.57 361.394 311.902 361.394 339.9C361.394 375.94 350.075 406.271 327.439 430.893C304.802 455.516 274.768 467.827 237.338 467.827C206.958 467.827 182.087 457.899 162.727 438.042C143.366 418.185 133.686 394.357 133.686 366.557C133.686 347.793 138.352 328.532 147.685 308.774C157.018 289.017 171.066 272.933 189.831 260.522C208.596 248.012 230.835 241.758 256.55 241.758ZM255.656 456.211C270.747 456.211 285.64 452.19 300.334 444.148C315.028 436.006 326.595 424.837 335.034 410.639C343.473 396.442 347.692 381.847 347.692 366.855C347.692 345.608 341.984 326.298 330.566 308.923C319.248 291.548 304.504 277.947 286.335 268.117C268.265 258.288 251.536 253.374 236.147 253.374C214.404 253.374 194.646 261.565 176.875 277.947C159.202 294.328 150.366 314.682 150.366 339.006C150.366 370.082 161.188 397.385 182.832 420.915C204.476 444.446 228.75 456.211 255.656 456.211ZM544.572 354.941H424.091V439.382C424.091 447.325 424.439 452.388 425.134 454.573C425.928 456.757 427.318 458.594 429.304 460.083C431.389 461.572 434.963 462.317 440.026 462.317V464.402H383.286V462.317C393.611 463.012 398.774 457.998 398.774 447.275V270.798C398.774 260.77 397.93 254.416 396.242 251.736C394.654 249.055 390.335 247.566 383.286 247.268V245.034H440.026V247.268C433.772 247.665 429.552 248.856 427.368 250.842C425.184 252.828 424.091 256.898 424.091 263.054V348.835H544.572V270.351C544.572 261.416 543.778 255.359 542.19 252.182C540.7 248.906 536.431 247.268 529.382 247.268V245.034H585.527V247.268C581.059 247.268 577.733 247.814 575.549 248.906C573.365 249.899 571.875 251.487 571.081 253.672C570.287 255.856 569.89 261.416 569.89 270.351V438.786C569.89 447.424 570.287 452.835 571.081 455.019C571.875 457.104 573.265 458.842 575.251 460.232C577.237 461.622 580.662 462.317 585.527 462.317V464.402H529.382V462.317C535.438 462.317 539.459 461.076 541.445 458.594C543.53 456.111 544.572 449.41 544.572 438.489V354.941Z" fill="#CEA866"/>
</svg>
