<svg width="512" height="143" viewBox="0 0 512 143" fill="none" xmlns="http://www.w3.org/2000/svg">
<path d="M48.7091 0C59.9818 0 69.2 3.44739 76.3636 10.3422C83.5273 17.2005 87.1091 25.7734 87.1091 36.0608C87.1091 49.3032 82.9636 60.448 74.6727 69.4951C66.3818 78.5422 55.3818 83.0658 41.6727 83.0658C30.5455 83.0658 21.4364 79.4178 14.3455 72.1217C7.25455 64.8256 3.70909 56.0703 3.70909 45.8558C3.70909 38.961 5.41818 31.8838 8.83636 24.6242C12.2545 17.3647 17.4 11.4548 24.2727 6.89479C31.1455 2.29826 39.2909 0 48.7091 0ZM48.3818 78.7976C53.9091 78.7976 59.3636 77.3201 64.7455 74.3652C70.1273 71.3738 74.3636 67.2698 77.4545 62.0531C80.5455 56.8364 82.0909 51.4738 82.0909 45.9653C82.0909 38.1585 80 31.063 75.8182 24.679C71.6727 18.2949 66.2727 13.2971 59.6182 9.68554C53 6.07398 46.8727 4.2682 41.2364 4.2682C33.2727 4.2682 26.0364 7.27783 19.5273 13.2971C13.0545 19.3164 9.81818 26.7948 9.81818 35.7325C9.81818 47.1509 13.7818 57.183 21.7091 65.8288C29.6364 74.4747 38.5273 78.7976 48.3818 78.7976Z" fill="#CEA866"/>
<path d="M132 44.7067H108.545L96.3818 75.186C95.5455 77.3749 95.1273 78.7246 95.1273 79.2354C95.1273 80.4392 96.0182 81.0411 97.8 81.0411V81.8072H85.8545V81.0411C87.4545 81.0411 88.8 80.6581 89.8909 79.892C90.9818 79.0894 92.1818 77.0465 93.4909 73.7633L122.618 0H123.982L152.673 71.2462C152.673 71.611 153.4 73.3438 154.855 76.4446C156.345 79.509 158.6 81.0411 161.618 81.0411V81.8072H142.855V81.0411C144.564 81.0411 145.418 80.3662 145.418 79.0165C145.418 78.1045 145 76.6453 144.164 74.6388C144.018 74.4929 143.891 74.2558 143.782 73.9275C143.709 73.5627 143.655 73.3803 143.618 73.3803L132 44.7067ZM109.309 42.4631H131.018L120.164 14.9934L109.309 42.4631Z" fill="#CEA866"/>
<path d="M165.436 1.20385H188.455V2.02466C185.945 1.91522 184.182 2.29826 183.164 3.17379C182.145 4.01284 181.636 6.23814 181.636 9.8497V40.7668L229.364 4.81541C230.309 4.15876 230.782 3.55684 230.782 3.00963C230.782 2.35298 229.709 2.02466 227.564 2.02466V1.20385H244.909V2.02466C240.545 2.1341 236.291 3.73924 232.145 6.84007L190.582 37.9761L232.036 69.6045C232.073 69.641 232.127 69.6775 232.2 69.714C232.273 69.7505 232.327 69.8052 232.364 69.8781C232.436 69.9146 232.509 69.9329 232.582 69.9329C238.036 74.0187 242.255 76.9006 245.236 78.5787C248.255 80.2203 251.073 81.0411 253.691 81.0411V81.8072H226.364V81.0411C228.8 81.0411 230.018 80.7675 230.018 80.2203C230.018 79.7461 229.018 78.7429 227.018 77.2107L181.636 42.5726V72.5047C181.636 76.0068 181.873 78.1592 182.345 78.9618C182.855 79.7643 183.509 80.348 184.309 80.7128C185.145 81.0411 186.491 81.1506 188.345 81.0411V81.8072H165.436V81.0411C168.491 81.1871 170.4 80.7311 171.164 79.6731C171.964 78.5787 172.364 76.2987 172.364 72.8331V10.2875C172.364 6.71239 171.964 4.39588 171.164 3.33795C170.4 2.28002 168.491 1.84226 165.436 2.02466V1.20385Z" fill="#CEA866"/>
<path d="M341.048 41.5876H296.921V72.6142C296.921 75.5326 297.048 77.3931 297.303 78.1957C297.594 78.9982 298.103 79.6731 298.83 80.2203C299.594 80.7675 300.903 81.0411 302.758 81.0411V81.8072H281.976V81.0411C285.758 81.2965 287.648 79.4542 287.648 75.5144V10.6705C287.648 6.98599 287.339 4.65125 286.721 3.66628C286.139 2.68131 284.558 2.1341 281.976 2.02466V1.20385H302.758V2.02466C300.467 2.17058 298.921 2.60835 298.121 3.33795C297.321 4.06756 296.921 5.56326 296.921 7.82504V39.3441H341.048V10.5063C341.048 7.22311 340.758 4.99781 340.176 3.83044C339.63 2.62659 338.067 2.02466 335.485 2.02466V1.20385H356.048V2.02466C354.412 2.02466 353.194 2.2253 352.394 2.62659C351.594 2.99139 351.048 3.57508 350.758 4.37764C350.467 5.18021 350.321 7.22311 350.321 10.5063V72.3953C350.321 75.5691 350.467 77.5573 350.758 78.3598C351.048 79.1259 351.558 79.7643 352.285 80.275C353.012 80.7858 354.267 81.0411 356.048 81.0411V81.8072H335.485V81.0411C337.703 81.0411 339.176 80.5851 339.903 79.6731C340.667 78.7611 341.048 76.2987 341.048 72.2858V41.5876Z" fill="#CEA866"/>
<path d="M385.667 1.20385V2.02466C384.612 1.91522 383.43 2.07938 382.121 2.51715C380.848 2.95491 380.085 3.59332 379.83 4.43236C379.612 5.27141 379.503 7.25959 379.503 10.3969V72.2858C379.503 75.642 379.63 77.7032 379.885 78.4693C380.176 79.1989 380.703 79.819 381.467 80.3298C382.267 80.804 383.667 81.0411 385.667 81.0411V81.8072H364.23V81.0411C366.921 81.0411 368.594 80.5304 369.248 79.509C369.903 78.451 370.23 76.0798 370.23 72.3953V11.1083C370.23 7.27783 369.867 4.77893 369.139 3.61156C368.412 2.4077 366.776 1.87874 364.23 2.02466V1.20385H385.667Z" fill="#CEA866"/>
<path d="M390.794 81.8072V81.0411C393.303 81.0411 394.921 80.5669 395.648 79.6184C396.412 78.6699 396.794 77.0465 396.794 74.7483V8.75529C396.794 6.42054 396.503 4.74245 395.921 3.721C395.339 2.66307 393.594 2.09762 390.685 2.02466V1.20385H412.23V2.02466C410.23 2.02466 408.83 2.28002 408.03 2.79075C407.23 3.30147 406.703 3.9034 406.448 4.59653C406.194 5.28965 406.067 6.85831 406.067 9.30249V65.8835C406.067 70.7354 407.23 74.1646 409.558 76.171C411.885 78.1409 415.867 79.1259 421.503 79.1259H431.321C436.048 79.1259 439.503 77.9585 441.685 75.6238C443.903 73.2891 445.139 68.8932 445.394 62.4361H446.158V81.8072H390.794Z" fill="#CEA866"/>
<path d="M451.339 81.8072V81.0411C453.848 81.0411 455.467 80.5669 456.194 79.6184C456.958 78.6699 457.339 77.0465 457.339 74.7483V8.75529C457.339 6.42054 457.048 4.74245 456.467 3.721C455.885 2.66307 454.139 2.09762 451.23 2.02466V1.20385H472.776V2.02466C470.776 2.02466 469.376 2.28002 468.576 2.79075C467.776 3.30147 467.248 3.9034 466.994 4.59653C466.739 5.28965 466.612 6.85831 466.612 9.30249V65.8835C466.612 70.7354 467.776 74.1646 470.103 76.171C472.43 78.1409 476.412 79.1259 482.048 79.1259H491.867C496.594 79.1259 500.048 77.9585 502.23 75.6238C504.448 73.2891 505.685 68.8932 505.939 62.4361H506.703V81.8072H451.339Z" fill="#CEA866"/>
<path d="M76.6909 112.74L77.8576 116.059H77.5606C74.5343 113.037 70.9707 111.527 66.8697 111.527C62.6131 111.527 59.1697 112.796 56.5394 115.336C53.9232 117.875 52.6151 120.947 52.6151 124.55C52.6151 126.777 53.1949 129.338 54.3545 132.232C55.5283 135.126 57.3737 137.51 59.8909 139.382C62.4081 141.241 65.4556 142.17 69.0333 142.17C71.3808 142.17 73.6788 141.794 75.9273 141.042C78.1899 140.276 79.8727 139.255 80.9758 137.978L81.2515 138.063L79.0667 141.425C75.5313 142.191 73.2333 142.645 72.1727 142.787C71.1263 142.929 69.7192 143 67.9515 143C61.404 143 56.7162 141.482 53.8879 138.446C51.0737 135.396 49.6667 131.75 49.6667 127.508C49.6667 124.642 50.3879 121.89 51.8303 119.251C53.2869 116.598 55.3798 114.513 58.1091 112.995C60.8384 111.463 63.9566 110.697 67.4636 110.697C69.2172 110.697 70.7303 110.86 72.003 111.186C73.2899 111.498 74.3576 111.824 75.2061 112.165L76.6061 112.697C76.6485 112.711 76.6768 112.725 76.6909 112.74Z" fill="#CEA866"/>
<path d="M105.371 126.87H88.2099V138.935C88.2099 140.07 88.2594 140.794 88.3584 141.106C88.4716 141.418 88.6695 141.681 88.9524 141.893C89.2493 142.106 89.7584 142.213 90.4796 142.213V142.511H82.3978V142.213C83.8685 142.312 84.6039 141.596 84.6039 140.063V114.846C84.6039 113.413 84.4837 112.505 84.2433 112.122C84.017 111.739 83.4019 111.527 82.3978 111.484V111.165H90.4796V111.484C89.5887 111.541 88.9877 111.711 88.6766 111.995C88.3655 112.278 88.2099 112.86 88.2099 113.74V125.997H105.371V114.782C105.371 113.506 105.257 112.64 105.031 112.186C104.819 111.718 104.211 111.484 103.207 111.484V111.165H111.204V111.484C110.568 111.484 110.094 111.562 109.783 111.718C109.472 111.86 109.259 112.087 109.146 112.399C109.033 112.711 108.977 113.506 108.977 114.782V138.85C108.977 140.085 109.033 140.858 109.146 141.17C109.259 141.468 109.457 141.716 109.74 141.915C110.023 142.113 110.511 142.213 111.204 142.213V142.511H103.207V142.213C104.07 142.213 104.642 142.035 104.925 141.681C105.222 141.326 105.371 140.368 105.371 138.808V126.87Z" fill="#CEA866"/>
<path d="M113.729 111.484V111.165H122.596C124.844 111.165 126.47 111.214 127.474 111.314C128.478 111.413 129.504 111.746 130.55 112.314C131.611 112.867 132.41 113.626 132.947 114.591C133.485 115.541 133.753 116.712 133.753 118.102C133.753 119.691 133.272 121.209 132.311 122.656C131.363 124.089 130.02 125.302 128.28 126.295L130.487 129.7C130.967 130.551 132.24 132.417 134.305 135.297C136.384 138.176 137.989 139.936 139.12 140.574C140.251 141.198 141.347 141.51 142.408 141.51C143.454 141.51 144.656 141.106 146.014 140.297L146.141 140.723C144.444 142.113 142.238 142.808 139.523 142.808C137.713 142.808 136.157 142.276 134.856 141.212C133.555 140.134 131.293 137.183 128.068 132.36C128.04 132.332 128.026 132.303 128.026 132.275L124.887 127.423L122.108 127.508H119.584V139.51C119.584 140.475 119.711 141.17 119.965 141.596C120.22 142.007 120.835 142.213 121.811 142.213V142.511H113.729V142.213C114.733 142.17 115.355 141.957 115.596 141.574C115.85 141.191 115.977 140.411 115.977 139.233V114.314C115.977 113.506 115.871 112.839 115.659 112.314C115.447 111.775 114.804 111.498 113.729 111.484ZM119.584 111.995V126.699H122.85C125.424 126.699 127.333 126.089 128.577 124.869C129.822 123.649 130.444 122.046 130.444 120.06C130.444 118.131 129.829 116.308 128.599 114.591C127.383 112.86 125.233 111.995 122.15 111.995H119.584Z" fill="#CEA866"/>
<path d="M155.39 111.165V111.484C154.98 111.441 154.521 111.505 154.012 111.676C153.517 111.846 153.22 112.094 153.121 112.42C153.036 112.747 152.993 113.52 152.993 114.74V138.808C152.993 140.113 153.043 140.915 153.142 141.212C153.255 141.496 153.46 141.737 153.757 141.936C154.068 142.12 154.613 142.213 155.39 142.213V142.511H147.054V142.213C148.101 142.213 148.751 142.014 149.006 141.617C149.26 141.205 149.387 140.283 149.387 138.85V115.017C149.387 113.527 149.246 112.555 148.963 112.101C148.68 111.633 148.044 111.427 147.054 111.484V111.165H155.39Z" fill="#CEA866"/>
<path d="M172.658 111.569L174.143 115.485L173.888 115.527C173.888 115.513 173.492 115.095 172.7 114.272C171.923 113.449 171.025 112.818 170.006 112.378C169.002 111.924 167.864 111.697 166.591 111.697C164.456 111.697 162.759 112.314 161.5 113.548C160.256 114.768 159.634 116.244 159.634 117.974C159.634 119.124 159.924 120.131 160.503 120.996C161.097 121.847 162.328 122.642 164.194 123.38C167.404 124.458 169.596 125.274 170.77 125.827C171.958 126.366 173.096 127.288 174.185 128.593C175.288 129.898 175.84 131.573 175.84 133.615C175.84 134.467 175.741 135.282 175.543 136.063C175.345 136.829 175.027 137.574 174.588 138.297C174.15 139.006 173.62 139.659 172.997 140.255C172.389 140.837 171.767 141.283 171.131 141.596C170.494 141.893 169.49 142.12 168.119 142.276C166.747 142.433 165.842 142.511 165.403 142.511H157.067V133.403H157.385C157.413 136.424 158.121 138.531 159.506 139.723C160.892 140.915 163.049 141.51 165.976 141.51C168.635 141.51 170.65 140.879 172.022 139.616C173.407 138.354 174.1 136.836 174.1 135.062C174.1 133.984 173.86 133.069 173.379 132.317C172.898 131.551 172.227 130.884 171.364 130.317C170.501 129.735 168.868 129.033 166.464 128.21C164.074 127.373 162.391 126.643 161.416 126.018C160.454 125.38 159.648 124.429 158.997 123.167C158.347 121.89 158.022 120.592 158.022 119.273C158.022 116.847 158.849 114.811 160.503 113.165C162.172 111.519 164.357 110.697 167.058 110.697C168.104 110.697 169.236 110.817 170.452 111.058C171.668 111.3 172.347 111.456 172.488 111.527C172.545 111.555 172.601 111.569 172.658 111.569Z" fill="#CEA866"/>
<path d="M202.228 110.08L200.744 113.867H200.447C200.503 113.64 200.532 113.335 200.532 112.952C200.532 112.626 200.411 112.42 200.171 112.335C199.945 112.236 199.577 112.186 199.068 112.186H190.901V139.021C190.901 140.127 190.986 140.886 191.156 141.298C191.34 141.695 191.58 141.95 191.877 142.064C192.188 142.163 192.683 142.213 193.362 142.213V142.511H184.898V142.213C185.959 142.142 186.623 141.936 186.892 141.596C187.161 141.255 187.295 140.546 187.295 139.467V112.186H179.468C178.676 112.186 178.16 112.236 177.919 112.335C177.679 112.42 177.559 112.647 177.559 113.016C177.559 113.201 177.615 113.484 177.728 113.867H177.432L175.947 110.08H176.244C176.498 110.59 176.746 110.902 176.986 111.016C177.241 111.115 177.778 111.165 178.598 111.165H199.365C200.185 111.165 200.772 111.115 201.125 111.016C201.493 110.902 201.762 110.59 201.932 110.08H202.228Z" fill="#CEA866"/>
<path d="M211.16 111.165V111.484C210.75 111.441 210.29 111.505 209.781 111.676C209.286 111.846 208.989 112.094 208.89 112.42C208.805 112.747 208.763 113.52 208.763 114.74V138.808C208.763 140.113 208.812 140.915 208.911 141.212C209.024 141.496 209.229 141.737 209.526 141.936C209.837 142.12 210.382 142.213 211.16 142.213V142.511H202.823V142.213C203.87 142.213 204.52 142.014 204.775 141.617C205.029 141.205 205.157 140.283 205.157 138.85V115.017C205.157 113.527 205.015 112.555 204.732 112.101C204.45 111.633 203.813 111.427 202.823 111.484V111.165H211.16Z" fill="#CEA866"/>
<path d="M229.912 128.083H220.791L216.06 139.936C215.735 140.787 215.573 141.312 215.573 141.51C215.573 141.979 215.919 142.213 216.612 142.213V142.511H211.967V142.213C212.589 142.213 213.112 142.064 213.536 141.766C213.96 141.454 214.427 140.659 214.936 139.382L226.264 110.697H226.794L237.951 138.403C237.951 138.545 238.234 139.219 238.8 140.425C239.38 141.617 240.256 142.213 241.43 142.213V142.511H234.133V142.213C234.798 142.213 235.13 141.95 235.13 141.425C235.13 141.071 234.968 140.503 234.642 139.723C234.586 139.666 234.536 139.574 234.494 139.446C234.466 139.304 234.444 139.233 234.43 139.233L229.912 128.083ZM221.088 127.21H229.53L225.309 116.527L221.088 127.21Z" fill="#CEA866"/>
<path d="M268.116 111.165H274.161V111.484C273.242 111.512 272.606 111.711 272.252 112.08C271.899 112.435 271.722 113.194 271.722 114.357V142.894L246.798 116.272V139.467C246.798 140.205 246.854 140.751 246.967 141.106C247.081 141.461 247.243 141.702 247.455 141.83C247.667 141.957 248.198 142.085 249.046 142.213V142.511H243.043V142.213C244.118 142.213 244.783 142.021 245.037 141.638C245.306 141.255 245.44 140.34 245.44 138.893V117.677C245.44 115.818 245.178 114.3 244.655 113.123C244.146 111.945 242.958 111.399 241.092 111.484V111.165H246.967L270.386 136.19V114.059C270.386 112.867 270.173 112.144 269.749 111.888C269.325 111.619 268.78 111.484 268.116 111.484V111.165Z" fill="#CEA866"/>
<path d="M303.202 111.569L304.687 115.485L304.433 115.527C304.433 115.513 304.037 115.095 303.245 114.272C302.467 113.449 301.569 112.818 300.551 112.378C299.547 111.924 298.408 111.697 297.136 111.697C295 111.697 293.303 112.314 292.045 113.548C290.8 114.768 290.178 116.244 290.178 117.974C290.178 119.124 290.468 120.131 291.048 120.996C291.642 121.847 292.872 122.642 294.739 123.38C297.949 124.458 300.141 125.274 301.315 125.827C302.502 126.366 303.641 127.288 304.73 128.593C305.833 129.898 306.384 131.573 306.384 133.615C306.384 134.467 306.285 135.282 306.087 136.063C305.889 136.829 305.571 137.574 305.133 138.297C304.694 139.006 304.164 139.659 303.542 140.255C302.934 140.837 302.311 141.283 301.675 141.596C301.039 141.893 300.035 142.12 298.663 142.276C297.291 142.433 296.386 142.511 295.948 142.511H287.611V133.403H287.93C287.958 136.424 288.665 138.531 290.051 139.723C291.437 140.915 293.593 141.51 296.521 141.51C299.179 141.51 301.194 140.879 302.566 139.616C303.952 138.354 304.645 136.836 304.645 135.062C304.645 133.984 304.404 133.069 303.924 132.317C303.443 131.551 302.771 130.884 301.908 130.317C301.046 129.735 299.413 129.033 297.008 128.21C294.619 127.373 292.936 126.643 291.96 126.018C290.998 125.38 290.192 124.429 289.542 123.167C288.891 121.89 288.566 120.592 288.566 119.273C288.566 116.847 289.393 114.811 291.048 113.165C292.717 111.519 294.901 110.697 297.602 110.697C298.649 110.697 299.78 110.817 300.996 111.058C302.213 111.3 302.891 111.456 303.033 111.527C303.089 111.555 303.146 111.569 303.202 111.569Z" fill="#CEA866"/>
<path d="M335.085 112.74L336.252 116.059H335.955C332.929 113.037 329.365 111.527 325.264 111.527C321.007 111.527 317.564 112.796 314.934 115.336C312.317 117.875 311.009 120.947 311.009 124.55C311.009 126.777 311.589 129.338 312.749 132.232C313.922 135.126 315.768 137.51 318.285 139.382C320.802 141.241 323.85 142.17 327.427 142.17C329.775 142.17 332.073 141.794 334.321 141.042C336.584 140.276 338.267 139.255 339.37 137.978L339.646 138.063L337.461 141.425C333.925 142.191 331.627 142.645 330.567 142.787C329.52 142.929 328.113 143 326.346 143C319.798 143 315.11 141.482 312.282 138.446C309.468 135.396 308.061 131.75 308.061 127.508C308.061 124.642 308.782 121.89 310.224 119.251C311.681 116.598 313.774 114.513 316.503 112.995C319.233 111.463 322.351 110.697 325.858 110.697C327.611 110.697 329.124 110.86 330.397 111.186C331.684 111.498 332.752 111.824 333.6 112.165L335 112.697C335.043 112.711 335.071 112.725 335.085 112.74Z" fill="#CEA866"/>
<path d="M363.765 126.87H346.604V138.935C346.604 140.07 346.654 140.794 346.753 141.106C346.866 141.418 347.064 141.681 347.347 141.893C347.644 142.106 348.153 142.213 348.874 142.213V142.511H340.792V142.213C342.263 142.312 342.998 141.596 342.998 140.063V114.846C342.998 113.413 342.878 112.505 342.637 112.122C342.411 111.739 341.796 111.527 340.792 111.484V111.165H348.874V111.484C347.983 111.541 347.382 111.711 347.071 111.995C346.76 112.278 346.604 112.86 346.604 113.74V125.997H363.765V114.782C363.765 113.506 363.652 112.64 363.425 112.186C363.213 111.718 362.605 111.484 361.601 111.484V111.165H369.598V111.484C368.962 111.484 368.488 111.562 368.177 111.718C367.866 111.86 367.654 112.087 367.54 112.399C367.427 112.711 367.371 113.506 367.371 114.782V138.85C367.371 140.085 367.427 140.858 367.54 141.17C367.654 141.468 367.852 141.716 368.134 141.915C368.417 142.113 368.905 142.213 369.598 142.213V142.511H361.601V142.213C362.464 142.213 363.036 142.035 363.319 141.681C363.616 141.326 363.765 140.368 363.765 138.808V126.87Z" fill="#CEA866"/>
<path d="M389.369 110.697C393.752 110.697 397.337 112.037 400.123 114.719C402.909 117.386 404.302 120.72 404.302 124.72C404.302 129.87 402.69 134.204 399.466 137.723C396.241 141.241 391.964 143 386.632 143C382.305 143 378.763 141.581 376.005 138.744C373.247 135.907 371.869 132.502 371.869 128.529C371.869 125.848 372.533 123.096 373.863 120.273C375.192 117.45 377.193 115.151 379.866 113.378C382.538 111.59 385.706 110.697 389.369 110.697ZM389.241 141.34C391.391 141.34 393.512 140.766 395.605 139.616C397.698 138.453 399.345 136.857 400.547 134.828C401.749 132.8 402.35 130.714 402.35 128.572C402.35 125.536 401.537 122.777 399.911 120.294C398.299 117.811 396.199 115.868 393.611 114.463C391.037 113.059 388.654 112.356 386.463 112.356C383.366 112.356 380.551 113.527 378.02 115.868C375.503 118.209 374.244 121.117 374.244 124.593C374.244 129.033 375.786 132.934 378.869 136.297C381.951 139.659 385.409 141.34 389.241 141.34Z" fill="#CEA866"/>
<path d="M423.839 110.697C428.223 110.697 431.808 112.037 434.594 114.719C437.38 117.386 438.772 120.72 438.772 124.72C438.772 129.87 437.16 134.204 433.936 137.723C430.712 141.241 426.434 143 421.103 143C416.776 143 413.233 141.581 410.476 138.744C407.718 135.907 406.339 132.502 406.339 128.529C406.339 125.848 407.004 123.096 408.333 120.273C409.662 117.45 411.663 115.151 414.336 113.378C417.009 111.59 420.177 110.697 423.839 110.697ZM423.712 141.34C425.861 141.34 427.983 140.766 430.076 139.616C432.168 138.453 433.816 136.857 435.018 134.828C436.22 132.8 436.821 130.714 436.821 128.572C436.821 125.536 436.008 122.777 434.382 120.294C432.769 117.811 430.669 115.868 428.082 114.463C425.508 113.059 423.125 112.356 420.933 112.356C417.836 112.356 415.022 113.527 412.491 115.868C409.973 118.209 408.715 121.117 408.715 124.593C408.715 129.033 410.256 132.934 413.339 136.297C416.422 139.659 419.88 141.34 423.712 141.34Z" fill="#CEA866"/>
<path d="M439.898 142.511V142.213C440.873 142.213 441.503 142.028 441.785 141.659C442.082 141.29 442.231 140.659 442.231 139.765V114.101C442.231 113.194 442.118 112.541 441.892 112.144C441.665 111.732 440.986 111.512 439.855 111.484V111.165H448.234V111.484C447.456 111.484 446.912 111.583 446.601 111.782C446.289 111.981 446.084 112.215 445.985 112.484C445.886 112.754 445.837 113.364 445.837 114.314V136.318C445.837 138.205 446.289 139.538 447.195 140.319C448.1 141.085 449.648 141.468 451.84 141.468H455.658C457.497 141.468 458.84 141.014 459.688 140.106C460.551 139.198 461.032 137.488 461.131 134.977H461.428V142.511H439.898Z" fill="#CEA866"/>
<path d="M0 86.4767H512V91.1462H0V86.4767Z" fill="#1D3557"/>
</svg>
